# xmcd
#
# Track frame offsets:
#	150
#	13222
#	28382
#	43350
#	60762
#	78407
#	91927
#	107062
#	120575
#	138050
#	150780
#	167302
#	183920
#	197772
#
# Disc length: 2851 seconds
# Revision: 3
# Processed by: cddbd v1.5.2PL0 Copyright (c) Steve Scherf et al.
# Submitted via: dBpowerAMP V12.0
#
DISCID=a40b210e
DTITLE=Various Artist - Ultimate Super Hits: Country 40
DYEAR=2002
DGENRE=Country
TTITLE0=O'Kanes, The - On Darlin' (Why Don't You Care for Me No More)
TTITLE1=Ricky Van Shelton - Somebody Lied
TTITLE2=Asleep at the Wheel - Boogie Back to Texas
TTITLE3=Vern Gosdin - Chiseled in Stone
TTITLE4=Dolly Parton - Yellow Roses
TTITLE5=Shenandoah - The Church on Cumberland Road
TTITLE6=Doug Stone - I'd Be Better Off (In a Pinebox)
TTITLE7=Waylon Jennings - Wrong
TTITLE8=Collin Raye - Love, Me
TTITLE9=Joe Diffie - Third Rock from the Sun
TTITLE10=Wade Hayes - Old Enough to Know Better
TTITLE11=Ty Herndon - What Mattered Most
TTITLE12=Ricochet - Daddy's Money
TTITLE13=Kinleys - Please
EXTD=
EXTT0=
EXTT1=
EXTT2=
EXTT3=
EXTT4=
EXTT5=
EXTT6=
EXTT7=
EXTT8=
EXTT9=
EXTT10=
EXTT11=
EXTT12=
EXTT13=
PLAYORDER=
